<?xml version="1.0" encoding="utf-8"?>
<!-- Generator: Adobe Illustrator 23.0.1, SVG Export Plug-In . SVG Version: 6.00 Build 0)  -->
<svg version="1.1" id="Layer_1" xmlns="http://www.w3.org/2000/svg" xmlns:xlink="http://www.w3.org/1999/xlink" x="0px" y="0px"
	 viewBox="0 0 6.8 6.8" style="enable-background:new 0 0 6.8 6.8;" xml:space="preserve">
<style type="text/css">
	.st0{fill-rule:evenodd;clip-rule:evenodd;}
	.st1{fill:none;}
</style>
<g>
	<g>
		<g>
			<polygon points="3.6,4.7 3.6,5.5 3.5,5.5 3.5,4.7 			"/>
			<path d="M3.3,5.6c0,0-0.1,0.1,0,0.1c0,0,0.1,0.1,0.1,0l0.2-0.1l0.2,0.1c0,0,0.1,0,0.1,0c0,0,0-0.1,0-0.1L3.6,5.5c0,0,0,0-0.1,0
				l0,0C3.5,5.5,3.3,5.6,3.3,5.6z"/>
			<polygon points="4.2,4.7 4.2,5.3 4,5.3 4,4.7 			"/>
			<path d="M3.8,5.4c0,0-0.1,0.1,0,0.1c0,0,0.1,0.1,0.1,0l0.2-0.1l0.2,0.1c0,0,0.1,0,0.1,0s0-0.1,0-0.1L4.1,5.3c0,0,0,0-0.1,0l0,0
				L3.8,5.4z"/>
		</g>
		<path class="st0" d="M3.9,3.7c-0.1,0.1-0.3,0.1-0.5,0C3.3,3.9,3.1,4,2.9,3.7c0,0,0-0.1,0-0.1c0,0,0.1,0,0.1,0
			c0.3,0.4,0.6-0.3,0.6-0.3c0,0,0,0,0.1,0c0,0,0,0,0,0.1c0,0-0.1,0.1-0.2,0.3C4,3.9,4.1,3.2,4.1,3.2c0,0,0,0,0.1,0c0,0,0,0,0,0.1
			c0,0-0.1,0.2-0.2,0.4C4.6,3.5,4.6,3,4.6,3c0,0,0-0.1,0.1-0.1c0,0,0.1,0,0.1,0.1C4.7,3,4.7,3.7,3.9,3.7C3.9,3.7,3.9,3.7,3.9,3.7z
			 M4,4.9c0.1,0,0.1,0,0.2-0.1c0.1-0.1,0.2-0.2,0.3-0.3c0.1-0.1,0.1-0.2,0.2-0.2C5,4.3,5.2,4.2,5.3,4C5.5,3.8,5.6,3.4,5.6,3
			c0-0.2,0-0.4-0.1-0.6c0,0,0-0.1-0.1-0.1c0,0,0,0,0.1,0c0.1,0,0.1-0.1,0.2-0.1c0.1,0,0.3,0,0.3,0.1C5.9,2,5.7,1.9,5.6,1.9l0,0l0,0
			l0,0l0,0c0,0,0,0,0,0C5.5,1.8,5.5,1.8,5.5,1.8c0-0.1,0-0.1,0-0.3l0,0c0-0.1,0-0.1-0.1-0.1c0,0,0,0,0,0c0,0,0,0-0.1,0
			c0,0,0-0.2,0-0.2l0,0c0-0.1-0.1-0.1-0.1-0.1c0,0,0,0,0,0c0,0,0,0,0,0c0,0-0.1,0.2-0.1,0.2c0,0-0.1,0-0.1,0l0,0c0,0-0.1-0.1-0.1,0
			c0,0-0.1,0.1,0,0.1c0,0.1,0,0.1,0,0.2c0,0,0,0,0,0c-0.1,0-0.2,0.1-0.3,0.1C4.5,1.8,4.4,1.9,4.4,2C3.8,2.7,3.5,2.7,2.8,2.3
			C2.5,2.2,1.9,1.9,1.6,1.9c0,0,0.4,0.4,0.2,0.4c-0.2,0-0.5-0.3-0.7-0.2C0.9,2.3,1.4,2.6,1.4,2.6c-0.1,0-0.4-0.2-0.5,0
			C0.8,2.9,1.9,3.2,2.2,3.9c0.1,0.2,0.2,0.5,0.5,0.6c0.2,0.1,0.4,0.1,0.6,0.2c0.1,0,0.1,0.1,0.2,0.1c0.1,0,0.1,0,0.2,0.1
			c0.1,0,0.2,0,0.3,0C3.9,4.9,4,4.9,4,4.9z M5.3,1.9C5.2,1.9,5.2,1.9,5.3,1.9c-0.1-0.1,0-0.1,0-0.1C5.3,1.8,5.3,1.8,5.3,1.9
			C5.3,1.9,5.3,1.9,5.3,1.9z"/>
	</g>
</g>
<rect class="st1" width="6.8" height="6.8"/>
</svg>
