<?xml version="1.0" encoding="utf-8"?>
<!-- Generator: Adobe Illustrator 23.0.1, SVG Export Plug-In . SVG Version: 6.00 Build 0)  -->
<svg version="1.1" id="Layer_1" xmlns="http://www.w3.org/2000/svg" xmlns:xlink="http://www.w3.org/1999/xlink" x="0px" y="0px"
	 viewBox="0 0 100 100" style="enable-background:new 0 0 100 100;" xml:space="preserve">
<path d="M24.2,93.5c0.2-1.1,0.9-1.3,1.7-1.2c2.2,0.5,3.4-0.5,4.5-2.4c2-3.4,4.5-6.4,7.2-9.3s5.2-6.1,7.8-9.1
	c0.7-0.8,0.6-1.8,0.6-2.7c0-3.6,0.4-7.2,0.6-10.8c0.3-4.7,0.8-9.3,1.2-14c0.1-1.1,0.8-2.2,0.3-3.1c-0.5-0.8-1.6-1.3-2.5-1.8
	c-2-1.1-3.5-3-5.7-3.9c-0.4-0.2-0.8-0.6-1.2-0.9c-2.7-2.9-6.1-4.8-9.5-6.8c-1.3-0.7-2.3-1.8-3.4-2.6c-0.3-0.2-0.5-0.6-0.7-0.9
	c-0.3-0.3-0.3-0.7-0.1-1c0.3-0.4,0.6-0.3,1-0.1c0.4,0.2,0.7,0.5,1,0.8c2.2,2.2,4.9,3.6,7.5,5.3c1.7,1.2,3.5,2.2,4.9,3.7
	c1.6,1.7,3.7,2.7,5.5,4.1c0.6,0.5,1.3,0.9,2,1.4c1,0.9,1.3,0.8,1.5-0.5c0-0.3,0.1-0.6,0.1-0.9c0.1-2.8,0.6-5.6,0.9-8.3
	c0.2-1.5,0.1-1.5-1.3-1.8c-2.6-0.6-4.9-2-6.4-4.2c-1.1-1.6-1.6-3.5-1.5-5.5c0.1-3.5,1.2-6.7,3.1-9.7c1.1-1.7,2.7-2.9,4.6-3.6
	c0.9-0.3,1.8-0.5,2.6-0.9c2.2-1.2,4.3-0.5,6.3,0.4c5.7,2.5,8.3,9.1,6.2,15c-0.8,2.3-2.2,4.2-4.1,5.7c-0.1,0.1-0.4,0.2-0.4,0.3
	c-1.6,2.4-4.2,2.6-6.7,3.1c-0.7,0.1-1,0.4-1.1,1c-0.5,3.5-1,7-1.2,10.6c0,0.2,0.1,0.4,0.2,0.8c2-0.8,3.6-2.2,5.5-3.1
	c1.9-0.9,3.6-2.3,5.5-3.1c1.9-0.9,3.5-2.3,5.5-3.2c1.9-0.9,3.6-2.3,5.5-3.1c1.9-0.8,3.3-2.4,5.5-3.2c-0.2,1.2-0.9,1.7-1.6,2.1
	c-3.2,2.1-6.5,3.9-9.9,5.7c-0.4,0.2-0.9,0.4-1.3,0.7c-4.5,3.1-9.4,5.4-14,8.3c-0.9,0.5-1.2,1.1-1.3,2.1C48.9,48,48.5,53.3,48,58.5
	c-0.3,3.4-0.4,6.8-0.6,10.3c-0.1,1.5,0.2,2.7,1.5,3.6c0.6,0.4,1.1,1.2,1.6,1.8c3.1,3.6,5.8,7.4,7.9,11.8c0.8,1.6,1.6,3.2,2.3,4.9
	c0.3,0.6,0.6,0.8,1.2,1c1.1,0.2,2.1,0.8,3.3,0.7c0.4,0,0.8,0.1,0.8,0.6c0.1,0.5-0.4,0.8-0.8,0.9c-0.3,0.1-0.7,0-1.1,0
	c-1.2,0-2.3-0.6-3.5-0.7c-0.7-0.1-1.2-0.8-1.5-1.6c-1.4-3.7-3.5-7.2-5.5-10.6c-0.6-1.1-1.6-2.1-2.4-3.1c-1.2-1.6-2.5-3.1-3.8-4.7
	c-1-1.2-1.1-1.2-2.2,0c-1.7,1.9-3.1,3.9-4.8,5.7c-3.6,3.8-7,7.8-9.8,12.3c-0.2,0.3-0.5,0.6-0.6,0.9c-1,1.9-1,1.9-3.2,1.7
	c-0.5-0.1-1-0.1-1.5-0.1C25.2,93.7,24.7,93.8,24.2,93.5z M62.4,14.6c0.2-2.9-1-5.3-2.6-7.6c-0.6-0.8-1.4-1.4-2.3-1.9
	C53.7,3,50.2,3.8,46.7,5.7c-1.1,0.6-1.8,1.5-2.4,2.5c-1.7,2.7-2.4,5.6-2.5,8.7c-0.1,2.3,0.7,4.3,2.3,5.9c2.5,2.3,5.6,2.9,8.8,2.8
	c1.5,0,3.1-0.3,4.2-1.7c0.3-0.4,0.8-0.7,1.3-1.1C61.2,20.8,62.3,17.9,62.4,14.6z"/>
</svg>
