<?xml version="1.0" encoding="utf-8"?>
<!-- Generator: Adobe Illustrator 23.0.1, SVG Export Plug-In . SVG Version: 6.00 Build 0)  -->
<svg version="1.1" id="Layer_1" xmlns="http://www.w3.org/2000/svg" xmlns:xlink="http://www.w3.org/1999/xlink" x="0px" y="0px"
	 viewBox="0 0 100 100" style="enable-background:new 0 0 100 100;" xml:space="preserve">
<g>
	<path d="M57.6,8.7c-0.3-4-3.6-7.2-7.6-7.2s-7.4,3.2-7.6,7.2C21.2,12.3,5,30.8,5,53c0,24.8,20.2,45,45,45c24.8,0,45-20.2,45-45
		C95,30.8,78.8,12.3,57.6,8.7z M50,95.7C26.5,95.7,7.3,76.6,7.3,53c0-21,15.2-38.5,35.2-42c0.8,3.4,3.8,5.8,7.4,5.8
		c3.6,0,6.6-2.5,7.4-5.8c20,3.5,35.2,21,35.2,42C92.7,76.6,73.5,95.7,50,95.7z"/>
	<circle cx="50" cy="53" r="19.1"/>
</g>
</svg>
