<?xml version="1.0" encoding="utf-8"?>
<!-- Generator: Adobe Illustrator 23.0.1, SVG Export Plug-In . SVG Version: 6.00 Build 0)  -->
<svg version="1.1" id="Layer_1" xmlns="http://www.w3.org/2000/svg" xmlns:xlink="http://www.w3.org/1999/xlink" x="0px" y="0px"
	 viewBox="0 0 100 100" style="enable-background:new 0 0 100 100;" xml:space="preserve">
<style type="text/css">
	.st0{display:none;}
	.st1{display:inline;}
	.st2{fill:none;stroke:#000000;stroke-width:3;stroke-linecap:round;stroke-linejoin:round;stroke-miterlimit:10;}
</style>
<g>
	<g class="st0">
		<g class="st1">
			<path d="M49,27.3c11.6,0,21,9.4,21,21s-9.4,21-21,21H31.8c3-5,6.2-12.4,6.2-21s-3.2-16-6.2-21H49 M49,23.3H24c0,0,10,10.8,10,25
				s-10,25-10,25h25c13.8,0,25-11.2,25-25S62.8,23.3,49,23.3L49,23.3z"/>
		</g>
		<g class="st1">
			<line class="st2" x1="5" y1="34.1" x2="32" y2="34.1"/>
		</g>
		<g class="st1">
			<line class="st2" x1="5" y1="62.6" x2="32" y2="62.6"/>
		</g>
		<g class="st1">
			<line class="st2" x1="95" y1="48.3" x2="72" y2="48.3"/>
		</g>
	</g>
	<path d="M95,46.8H73.9c-0.8-13.1-11.6-23.5-25-23.5H24c0,0,3.3,3.5,6.1,9.2H5c-0.8,0-1.5,0.7-1.5,1.5s0.7,1.5,1.5,1.5h26.4
		c1.5,3.7,2.6,8,2.6,12.8s-1.1,9.1-2.6,12.7H5c-0.8,0-1.5,0.7-1.5,1.5c0,0.8,0.7,1.5,1.5,1.5h25.1c-2.8,5.7-6.1,9.3-6.1,9.3h25
		c13.3,0,24.2-10.4,25-23.5H95c0.8,0,1.5-0.7,1.5-1.5S95.8,46.8,95,46.8z M49,69.3H31.8c3-5,6.2-12.4,6.2-21s-3.2-16-6.2-21H49
		c11.6,0,21,9.4,21,21S60.6,69.3,49,69.3z"/>
</g>
</svg>
